# xmcd CD database file generated by OrangeCD 6.5
#
# Track frame offsets:
#	183
#	22175
#	55588
#	71573
#	83848
#	95055
#	129005
#	147270
#	164898
#	187653
#
# Disc length: 2674 seconds
#
# Revision: 11
# Processed by: cddbd v1.5.2PL0 Copyright (c) Steve Scherf et al.
# Submitted via: OrangeCD 6.5
#
DISCID=840a700a
DTITLE=B.B. King - Live at The Apollo
DYEAR=1991
DGENRE=Blues
TTITLE0=When love comes to town
TTITLE1=Sweet sixteen
TTITLE2=The thrill is gone
TTITLE3=Ain't nobody's bizness
TTITLE4=Paying the cost to be the boss
TTITLE5=All over again
TTITLE6=Nightlife
TTITLE7=Since I met you baby
TTITLE8=Guess who
TTITLE9=Peace to the world
EXTD=
EXTT0=
EXTT1=
EXTT2=
EXTT3=
EXTT4=
EXTT5=
EXTT6=
EXTT7=
EXTT8=
EXTT9=
PLAYORDER=
